<svg xmlns="http://www.w3.org/2000/svg" viewBox="0 0 200 200" width="200" height="200">
  <defs>
    <linearGradient id="twa-grad" x1="0%" y1="0%" x2="100%" y2="100%">
      <stop offset="0%" stop-color="#2563eb" />
      <stop offset="100%" stop-color="#3b82f6" />
    </linearGradient>
    <linearGradient id="twa-glow" x1="0%" y1="0%" x2="100%" y2="100%">
      <stop offset="0%" stop-color="#60a5fa" />
      <stop offset="100%" stop-color="#1d4ed8" />
    </linearGradient>
  </defs>
  <circle cx="100" cy="100" r="95" fill="url(#twa-grad)" stroke="url(#twa-glow)" stroke-width="6" />
  <circle cx="100" cy="100" r="82" fill="none" stroke="#ffffff" stroke-width="2" stroke-dasharray="6,4" opacity="0.6" />
  <!-- Wizard Hat / Tech Icon emblem -->
  <path d="M100 35 L145 125 L55 125 Z" fill="#ffffff" opacity="0.95" />
  <path d="M50 125 Q100 135 150 125 Q100 145 50 125 Z" fill="#facc15" />
  <!-- Sparkles -->
  <polygon points="100,50 103,58 111,61 103,64 100,72 97,64 89,61 97,58" fill="#facc15" />
  <polygon points="130,85 132,90 137,92 132,94 130,99 128,94 123,92 128,90" fill="#ffffff" />
  <!-- TWA Text -->
  <text x="100" y="172" font-family="sans-serif" font-weight="900" font-size="22" fill="#ffffff" text-anchor="middle" letter-spacing="2">TWA</text>
</svg>
